<svg xmlns="http://www.w3.org/2000/svg" width="32" height="32"><path fill="#757575" d="M23.467 0H8.534c-1.765 0-3.2 1.34-3.2 2.987v25.889c0 1.647 1.435 2.987 3.2 2.987h14.933c1.765 0 3.2-1.34 3.2-2.987V2.987c0-1.647-1.435-2.987-3.2-2.987zM8.533 1.992h14.933c.589 0 1.067.446 1.067.996v20.91H7.466V2.988c0-.549.478-.996 1.067-.996zm14.934 27.88H8.534c-.589 0-1.067-.446-1.067-.996v-2.987h17.067v2.987c0 .549-.478.996-1.067.996z"/><path fill="#757575" d="M10.354 27.177c.417.389.417 1.02 0 1.409s-1.092.389-1.508 0c-.417-.389-.417-1.02 0-1.409s1.092-.389 1.508 0z"/></svg>